<svg width="40" height="40" viewBox="0 0 40 40" fill="none" xmlns="http://www.w3.org/2000/svg">
<path d="M11.5013 1.77833C15.8903 -0.250504 21.0164 -0.522091 25.637 0.854666C27.7089 1.61027 29.7509 2.52049 31.5057 3.86901C32.5599 4.64613 33.5531 5.51332 34.4149 6.49749C34.8201 6.95327 35.2117 7.41981 35.5775 7.90786C37.354 10.2863 38.5925 13.0626 39.1304 15.9761C39.8987 20.019 39.3459 24.2932 37.5532 28.0053C36.6223 29.8943 35.4122 31.6489 33.9352 33.1587C33.6249 33.4626 33.3702 33.8242 33.007 34.0716C31.6398 35.3408 30.0571 36.368 28.3877 37.2016C27.1872 37.9209 25.82 38.3189 24.4568 38.612C21.7725 39.264 18.9418 39.3622 16.2236 38.858C12.5881 38.2745 9.16392 36.5616 6.46063 34.0958C5.06495 32.875 3.89014 31.4189 2.89961 29.8607C2.5053 29.2772 2.2641 28.6117 1.91179 28.0053C-0.290133 23.4623 -0.600435 18.0695 1.03509 13.3006C2.30204 9.55351 4.76278 6.22321 7.95794 3.86901C8.77096 3.2613 9.63547 2.72216 10.5352 2.25159C10.8455 2.07277 11.1775 1.93295 11.5013 1.77833ZM6.88205 6.30388C5.24517 7.87021 3.90233 9.73099 2.92265 11.7665C0.772211 16.3365 0.625868 21.7816 2.51749 26.4618C3.72889 29.3995 5.7384 31.9809 8.20049 33.995C9.79265 35.2077 11.5474 36.2228 13.4458 36.8856C17.2074 38.2947 21.4419 38.3404 25.2712 37.1639C26.1587 36.8574 27.0002 36.4393 27.8904 36.1381C29.0802 35.5479 30.1926 34.8232 31.2577 34.0353C31.5192 33.7382 31.8498 33.5096 32.1452 33.2488C32.9041 32.6102 33.5558 31.8613 34.19 31.1057C35.8526 29.0513 37.0721 26.6433 37.7198 24.0874C38.6575 20.3363 38.3879 16.3015 36.9542 12.7063C36.8079 12.3971 36.6765 12.0812 36.5423 11.7679C35.2835 9.15823 33.4325 6.82689 31.1303 5.04678C30.1181 4.27236 29.0273 3.60953 27.8877 3.03812C25.8322 2.11311 23.6356 1.43145 21.3782 1.25264C16.1098 0.745763 10.6802 2.64956 6.88205 6.30388Z" fill="white"/>
<path d="M18.3814 2.88376C18.4749 2.69688 18.5819 2.49386 18.7987 2.42529C18.8339 2.50865 18.9071 2.67671 18.9423 2.76142C19.0087 4.65177 19.7107 6.43725 20.4261 8.16492C21.0074 9.65999 21.8421 11.0381 22.6592 12.4135C23.2595 13.2296 24.0467 13.8871 24.8354 14.5163C25.9546 15.4063 27.1335 16.2749 28.4967 16.7549C28.5915 17.169 28.5278 17.5925 28.5062 18.012C29.3476 18.7877 30.5252 19.222 31.6756 19.1037C32.4899 18.7729 32.9425 17.9205 33.1675 17.1206C33.5265 17.9515 34.0333 18.7931 33.9141 19.7343C33.7339 21.5601 32.9696 23.3711 31.5929 24.6269C31.3951 24.206 31.6647 23.7812 31.578 23.3496C31.4859 22.8239 31.0048 22.3358 30.4452 22.3466C29.7135 22.3358 29.0495 22.68 28.3747 22.9099C28.372 22.512 28.4411 22.0522 28.1538 21.7295C27.7284 21.2038 26.9709 21.2643 26.3652 21.2965C25.2148 21.3974 24.0305 21.5668 22.9858 22.071C23.8909 22.0992 24.8178 22.1516 25.666 22.5012C25.3882 22.9422 25.1972 23.5109 25.418 24.0151C25.6525 24.6067 25.9763 25.162 26.3381 25.6863C26.7771 26.2039 27.498 26.2954 28.1159 26.4715C28.269 26.4742 28.4221 26.4742 28.5766 26.4728C28.7839 26.3505 29.0265 26.3478 29.2609 26.3411C28.0089 28.1091 25.918 29.1269 23.7893 29.3742C23.9939 28.8593 24.3096 28.3605 24.2961 27.7877C24.2961 26.8466 23.7297 26.0359 23.2026 25.2991C22.7053 24.7586 22.1673 24.2248 21.4925 23.9089C20.8164 23.5566 20.0901 23.3173 19.3732 23.0619C18.6605 22.832 17.9044 22.8669 17.1713 22.7634C15.7431 22.5886 14.3041 22.8669 12.8745 22.7271C13.9436 21.6407 14.9748 20.4912 15.7634 19.183C14.1049 18.0348 12.4653 16.853 10.9219 15.5556C9.65768 14.5096 8.57501 13.1718 8.09668 11.588C9.65361 12.2764 11.2796 12.8195 12.945 13.1799C13.7228 13.8185 14.5832 14.4961 15.6307 14.5889C15.4138 14.3281 15.0941 14.1842 14.8502 13.9529C13.6374 12.9271 12.6916 11.5221 12.4301 9.94368C13.3976 10.8579 14.567 11.5382 15.7689 12.1029C16.3407 12.3503 16.9152 12.6085 17.5304 12.7281C16.8813 10.9561 16.6483 9.00522 17.048 7.15117C17.254 5.66551 17.7662 4.24573 18.3814 2.88376ZM23.0291 15.3875C23.7202 16.2803 24.2907 17.2604 24.8869 18.2163C25.437 18.1209 25.9709 17.9407 26.4817 17.7202C25.3327 16.9404 24.1877 16.1525 23.0291 15.3875Z" fill="white"/>
<path d="M6.7795 8.75923C8.00445 7.45238 9.39065 6.23697 11.0695 5.5459C10.7281 5.90891 10.285 6.14689 9.89336 6.44805C8.71313 7.46986 7.50173 8.50378 6.67787 9.84423C5.80117 11.0704 5.28355 12.5036 4.92582 13.953C4.54506 15.7183 4.30115 17.5213 4.37297 19.331C4.1128 19.5514 3.80927 19.7612 3.69274 20.0973C3.67513 20.3568 3.896 20.5477 4.08435 20.6943C5.34588 21.5803 6.6318 22.4986 8.12911 22.9476C8.10879 24.1402 8.29849 25.3449 8.76462 26.4473C8.98414 25.4322 9.15352 24.4064 9.35813 23.3886C10.4137 23.6091 11.4693 23.839 12.5384 23.9869C12.4571 25.642 12.6495 27.3092 13.1075 28.9037C13.5506 30.5615 14.7051 31.8925 15.7701 33.1967C16.0208 33.4777 16.2254 33.8313 16.5859 33.9899C15.8176 32.6643 15.3392 31.1853 15.0791 29.6822C15.6455 28.5125 16.1753 27.3186 16.6482 26.1085C17.4463 28.4963 18.9395 30.7631 21.197 32.0108C22.6415 32.7866 24.3393 33.2868 25.9857 32.9627C27.605 32.7584 29.063 31.9571 30.4546 31.1598C31.9844 30.2885 33.3733 29.1457 34.4032 27.7165C34.6566 27.3764 34.7988 26.9596 35.1213 26.6719C34.8747 27.3145 34.5129 27.9021 34.1023 28.4533C32.4045 31.184 29.918 33.436 26.9966 34.8195C23.9681 36.3051 20.4789 36.7999 17.1441 36.3132C14.056 35.8601 11.1048 34.5277 8.72533 32.5244C6.51527 30.6744 4.7849 28.2637 3.76998 25.5761C2.67511 22.7352 2.43392 19.5985 2.96509 16.611C3.52065 13.7231 4.85671 10.9938 6.7795 8.75923Z" fill="white"/>
<path d="M5.35742 20.1218C7.47805 19.1376 9.74637 18.5111 12.0364 18.0566C12.7505 18.4613 13.4605 18.8741 14.1692 19.2909C13.1732 20.3261 12.2464 21.4259 11.264 22.4733C9.21113 21.9328 7.16503 21.2552 5.35742 20.1218Z" fill="white"/>
<path d="M13.9564 23.9966C14.7424 23.9495 15.5283 24.0571 16.3101 24.0127C15.5987 25.2873 14.8873 26.6022 14.5716 28.0354C14.1177 26.7487 13.867 25.3626 13.9564 23.9966Z" fill="white"/>
</svg>
