<svg width="40" height="40" viewBox="0 0 40 40" fill="none" xmlns="http://www.w3.org/2000/svg">
<path d="M10.536 2.24986C13.6716 0.605546 17.2665 -0.178291 20.8072 0.0341379C22.3058 0.0771615 23.7774 0.390427 25.234 0.723861C26.2733 1.06671 27.2828 1.4956 28.2842 1.93525C30.6013 3.03773 32.707 4.5933 34.4157 6.49844C34.8209 6.95423 35.2084 7.42211 35.5783 7.90612C38.8928 12.2918 40.1976 18.0906 39.077 23.4578C38.7749 25.0322 38.2329 26.5542 37.5526 28.0076C36.6231 29.8966 35.4103 31.6485 33.936 33.1624C33.6285 33.4689 33.3629 33.8185 33.0078 34.0766C32.5431 34.5257 32.0255 34.9169 31.5092 35.3055C30.2517 36.2641 28.833 36.9821 27.4305 37.7054C24.8668 38.7164 22.0931 39.2139 19.3356 39.1763C15.513 39.0889 11.7054 37.9447 8.55767 35.7707C7.86254 35.206 7.09288 34.7368 6.45602 34.1008C2.93158 30.9749 0.686296 26.5165 0.128023 21.8727C-0.298812 18.1189 0.340764 14.2373 2.0603 10.8586C3.43295 8.11049 5.47769 5.70116 7.95468 3.86997C8.69182 3.31604 9.47638 2.82933 10.2826 2.38162C10.345 2.348 10.4723 2.28212 10.536 2.24986ZM15.9792 1.56013C10.3206 2.65858 5.35709 6.59659 2.92481 11.7688C2.7866 12.0821 2.65109 12.394 2.51152 12.706C0.764887 17.0715 0.747273 22.0999 2.52101 26.4601C2.87467 27.2937 3.26627 28.1138 3.73512 28.8923C4.92483 30.8256 6.43434 32.5587 8.20265 33.9946C9.96826 35.3606 11.9629 36.4335 14.0957 37.1152C17.696 38.2956 21.6676 38.2755 25.2815 37.1595C26.1649 36.8557 27.0024 36.4389 27.8872 36.1391C29.0783 35.5502 30.1934 34.8282 31.2531 34.0336C31.6393 33.6356 32.0973 33.3156 32.5011 32.9338C33.1393 32.3503 33.6976 31.6875 34.2545 31.03C35.8778 28.9891 37.0797 26.6174 37.7179 24.0938C38.6556 20.3427 38.3914 16.3025 36.951 12.7086C36.8128 12.3967 36.6773 12.0835 36.5377 11.7729C34.7531 8.00158 31.6609 4.86623 27.8845 3.03907C26.6202 2.42464 25.2693 2.03339 23.921 1.65156C21.3221 1.05057 18.5903 1.01561 15.9792 1.56013Z" fill="white"/>
<path d="M12.1607 4.26112C15.7312 2.52001 19.9169 2.05347 23.7801 3.00134C27.5877 3.9008 31.0349 6.16627 33.4049 9.24918C35.2911 11.7177 36.5188 14.6944 36.8209 17.7827C37.1163 19.6448 36.8697 21.5365 36.5038 23.369C36.1624 24.7485 35.6935 26.105 35.0282 27.3648C34.9022 27.6418 34.5323 27.8448 34.2504 27.666C33.8737 27.5248 33.7951 27.0435 34.0201 26.7383C36.4022 22.1482 36.2898 16.3925 33.7328 11.8951C33.6393 11.7298 33.5187 11.5872 33.3697 11.4703C33.5133 12.4786 33.703 13.487 33.7382 14.5075C33.6827 14.6608 33.6136 14.8073 33.5472 14.9552C33.0851 15.0533 32.5512 15.0574 32.2057 15.4285C31.661 15.9111 31.6515 16.8267 32.1542 17.3417C32.4401 17.6307 32.8575 17.7127 33.2233 17.8647C33.5282 18.3258 33.2314 18.8542 33.1095 19.3234C32.8588 20.0441 32.6163 20.7836 32.1894 21.4249C31.7111 21.6279 31.2965 21.2487 30.8371 21.164C30.5146 21.0888 30.184 21.1358 29.8615 21.1788C29.1664 21.4114 28.5281 21.9264 28.3249 22.647C28.1907 22.9885 28.2409 23.369 28.104 23.7078C27.9631 23.8288 27.7815 23.888 27.604 23.9256C27.2625 23.9122 27.0945 23.6003 26.894 23.3771C25.9495 22.2343 24.4915 21.4679 22.9861 21.5096C21.7909 21.4961 20.5795 21.9613 19.7448 22.8164C18.9955 23.5451 18.5781 24.6127 18.6838 25.6533C18.7773 26.5474 19.2218 27.424 19.9725 27.9483C20.8898 28.5937 22.2625 28.5332 23.0836 27.7534C23.7069 27.108 23.7801 25.9034 23.0497 25.3105C22.7422 24.9797 22.2001 25.1733 21.8871 24.8533C21.6093 24.6194 21.7042 24.1945 21.9359 23.966C22.192 23.8382 22.4847 23.8463 22.7598 23.8974C23.9739 24.1434 24.8384 25.3615 24.7747 26.5716C24.772 28.0478 23.4888 29.2875 22.0673 29.5241C20.4074 29.8589 18.692 28.8559 17.9738 27.3769C17.2719 26.0378 17.3478 24.415 18.0456 23.0907C17.9752 21.9654 17.0036 20.9288 15.8423 20.9207C14.6242 22.046 12.784 22.4722 11.2122 21.8847C10.803 21.722 10.4154 21.515 10.0604 21.2568C9.14442 20.5496 8.53872 19.4068 8.60376 18.2411C8.62002 16.5955 10.116 14.9955 11.8328 15.173C12.2556 15.4486 12.2705 16.0483 11.8423 16.3266C11.2935 16.3172 10.7569 16.4879 10.3599 16.8738C9.64171 17.6738 9.62409 18.9752 10.2772 19.8169C11.1336 20.961 12.8206 21.2299 14.093 20.6773C15.5388 20.0253 16.4142 18.4374 16.3789 16.8886C16.4101 15.8654 16.0388 14.857 15.4128 14.0504C14.2502 12.5391 12.2854 11.7392 10.387 11.8642C9.10376 11.8763 7.87611 12.3845 6.84222 13.1146C5.13488 14.4013 4.05492 16.4046 3.78798 18.502C3.53729 21.4773 4.227 24.4984 5.63624 27.1295C5.77174 27.3581 5.90453 27.588 6.03868 27.8179C8.09155 31.1818 11.4561 33.6853 15.2312 34.8375C17.3383 35.425 19.5714 35.6375 21.7448 35.3309C23.398 35.1938 24.9685 34.621 26.5024 34.0295C26.7666 33.7915 27.1067 33.6718 27.4102 33.4971C29.2395 32.5398 30.8452 31.1832 32.1501 29.5967C32.4537 29.2606 32.6474 28.7671 33.142 28.6744C33.5905 28.712 33.9361 29.2579 33.6122 29.6303C32.5688 31.0729 31.2748 32.3368 29.829 33.3814C29.4902 33.6167 29.1921 33.9286 28.7775 34.0322C28.5674 34.2553 28.2883 34.3884 28.0227 34.5337C24.459 36.5114 20.1662 37.1325 16.177 36.2842C14.2366 35.8701 12.3328 35.1871 10.6688 34.0994C9.88426 33.6503 9.16745 33.0964 8.47503 32.5196C7.37745 31.4427 6.23381 30.3792 5.41537 29.067C5.1281 28.5856 4.82728 28.1137 4.56034 27.6203C3.54949 25.7151 2.86655 23.6245 2.65517 21.4773C2.47088 20.27 2.46275 19.0303 2.63891 17.8216C2.96683 14.529 4.30831 11.3412 6.42758 8.78668C6.63219 8.48417 7.01972 8.46938 7.32325 8.62937C7.50754 8.87272 7.61187 9.21826 7.38287 9.47102C6.71213 10.2683 6.15522 11.1489 5.62133 12.039C5.5712 12.1882 5.52377 12.3388 5.47906 12.4894C5.66741 12.4558 5.87066 12.4356 6.01158 12.2904C6.74736 11.6935 7.61323 11.2659 8.51568 10.9782C10.1255 10.478 11.8951 10.5695 13.4629 11.1758C14.7285 11.6948 15.8572 12.5553 16.6174 13.6914C17.8396 15.5024 17.9074 17.9749 16.7543 19.8357C17.6947 20.2363 18.5741 20.9046 18.9426 21.8847C19.8085 21.1882 20.8004 20.5886 21.9224 20.43C23.8465 19.9957 25.8533 20.7661 27.2978 22.0272C27.6514 21.1385 28.4319 20.4407 29.3357 20.1288C30.0525 19.8881 30.8276 19.9285 31.5499 20.1194C31.7368 19.6609 31.9062 19.1944 32.0661 18.7251C30.8344 18.1215 30.203 16.5403 30.8412 15.2967C31.1718 14.6473 31.7721 14.1593 32.4767 13.9562C32.3683 11.9758 31.7938 10.0155 30.8832 8.25157C30.4252 7.67613 29.7964 7.26471 29.2341 6.79683C28.5376 6.31282 27.8222 5.85838 27.0715 5.46041C22.6392 3.17343 17.131 3.12503 12.6553 5.3273C11.5022 5.90947 10.4032 6.60054 9.41948 7.43681C9.23656 7.61294 9.01433 7.73394 8.77178 7.80923C8.68777 7.77831 8.51839 7.71781 8.43438 7.68688C8.19047 7.4516 8.0902 7.06842 8.3463 6.80086C9.49672 5.7925 10.7854 4.93875 12.1607 4.26112Z" fill="white"/>
<path d="M21.4091 5.53157C21.9498 5.23981 22.6232 5.14032 23.1923 5.41325C24.0582 5.77492 24.565 6.88278 24.1707 7.74863C24.0216 8.195 23.6585 8.52171 23.2655 8.75969C22.3075 9.28135 21.0365 8.72473 20.6787 7.72846C20.4267 7.22025 20.5758 6.63808 20.8129 6.15541C20.9863 5.9255 21.1869 5.71711 21.4091 5.53157ZM21.8075 7.23235C21.8942 7.82123 22.7289 7.87905 23.0365 7.42595C23.0609 7.1342 23.1246 6.74295 22.8089 6.58027C22.3631 6.23877 21.6354 6.67304 21.8075 7.23235Z" fill="white"/>
<path d="M17.5341 6.43487C17.2929 6.03018 17.7197 5.60936 18.1086 5.52734C18.3173 5.63356 18.6235 5.6712 18.6926 5.93338C18.8376 6.23723 18.6967 6.69571 18.3403 6.77369C18.0395 6.87452 17.6411 6.76024 17.5341 6.43487Z" fill="white"/>
<path d="M25.7679 7.14617C26.1256 6.8719 26.7083 6.92164 26.9102 7.3586C27.4129 8.36966 27.379 9.54474 27.7747 10.5934C28.4928 10.7588 29.2124 10.943 29.8912 11.2348C30.0904 11.3948 30.3086 11.5615 30.3845 11.8169C30.4536 12.1436 30.249 12.4878 29.9617 12.6411C29.2679 13.0364 28.4549 13.1211 27.7164 13.4021C27.4915 14.319 27.3628 15.2561 27.0931 16.1637C27.0023 16.4621 26.8424 16.7835 26.5389 16.9166C26.2015 17.1465 25.8153 16.8453 25.6175 16.5764C25.1893 15.6864 25.1635 14.6807 24.8925 13.7449C24.8505 13.5943 24.8126 13.4196 24.65 13.355C23.8261 13.0256 22.8058 13.0081 22.1919 12.2902C22.1608 11.9769 22.1296 11.5991 22.4304 11.3988C23.1337 10.9054 24.0307 10.8489 24.8099 10.5329C25.1703 9.41836 25.1202 8.15723 25.7679 7.14617Z" fill="white"/>
<path d="M11.8114 7.9168C12.073 7.7568 12.4673 7.60488 12.7125 7.87109C13.0323 8.10906 13.0296 8.61055 12.7112 8.84718C12.4564 9.11877 12.0499 8.96281 11.7938 8.77324C11.6773 8.49224 11.6841 8.19242 11.8114 7.9168Z" fill="white"/>
<path d="M28.737 14.528C28.9999 14.4393 29.3237 14.3331 29.5649 14.5321C29.9755 14.8252 29.8183 15.5351 29.3359 15.6574C28.9551 15.7999 28.6475 15.445 28.5039 15.1384C28.5527 14.9247 28.6245 14.7176 28.737 14.528Z" fill="white"/>
<path d="M21.8691 18.0357C21.5818 17.5974 22.0845 16.9776 22.5818 17.1376C23.0588 17.2169 23.1713 17.8192 22.9301 18.1782C22.6171 18.47 22.0602 18.4525 21.8691 18.0357Z" fill="white"/>
<path d="M11.296 27.0894C11.3813 26.8151 11.7973 26.7748 11.9139 27.0451C12.1239 27.486 12.1171 27.9916 12.2784 28.4474C12.6483 28.6679 13.1944 28.6208 13.4721 29.0026C13.5155 29.6224 12.674 29.5848 12.2648 29.7717C12.151 30.2409 12.1185 30.7357 11.9233 31.1821C11.8244 31.4698 11.4111 31.4604 11.3122 31.1807C11.1103 30.7357 11.0927 30.2369 10.9558 29.7717C10.5548 29.6292 10.0846 29.5915 9.77562 29.2715C9.67534 28.6463 10.5385 28.6504 10.9586 28.4837C11.0805 28.0212 11.1212 27.5371 11.296 27.0894Z" fill="white"/>
</svg>
