<svg width="23" height="20" viewBox="0 0 23 20" fill="none" xmlns="http://www.w3.org/2000/svg">
<path d="M1.97359 3.08114C3.46518 0.752616 6.67685 -0.166468 9.22616 0.814234C10.2813 1.15825 11.1362 1.88222 12.0117 2.53175C12.9513 1.64347 14.0706 0.914357 15.3543 0.644792C17.9729 -0.00729754 20.9663 1.29688 22.1781 3.72809C23.4694 6.04635 23.0869 9.1271 21.2744 11.0603C19.7597 12.6366 18.2194 14.1898 16.6918 15.7533C16.335 16.2154 15.6033 16.3052 15.2028 15.8534C12.6766 13.3195 10.1761 10.7599 7.64215 8.23625C7.27503 7.86656 6.84116 7.26325 7.23909 6.76519C7.52919 6.32105 8.23263 6.41861 8.56124 6.77803C11.0181 9.1887 13.3903 11.6867 15.8703 14.0742C17.2797 12.7649 18.5942 11.3606 19.9471 9.99483C21.1435 8.81902 21.5928 6.97828 21.1024 5.37886C20.4118 3.12735 17.8599 1.59725 15.5519 2.28015C14.7073 2.57025 13.6855 3.00413 13.3158 3.8539C14.2683 5.18375 15.7625 6.0977 16.6533 7.4789C17.0795 8.35177 15.8292 8.97562 15.249 8.32097C13.5058 6.64453 11.832 4.89621 10.1042 3.20437C8.78716 1.9156 6.64091 1.70251 5.02866 2.53688C3.56274 3.37125 2.42286 4.96039 2.53839 6.70614C2.47421 7.98465 3.10576 9.19898 4.03255 10.0462C6.79752 12.842 9.66517 15.535 12.3608 18.3976C12.8178 18.8032 12.6894 19.7325 12.0399 19.8635C11.4982 19.9764 11.1182 19.5528 10.7691 19.2216C8.4303 16.9419 6.16596 14.5903 3.87081 12.2694C3.02618 11.394 2.04548 10.593 1.53459 9.46084C0.528212 7.45579 0.713054 4.93215 1.97359 3.08114Z" fill="#878D9D"/>
</svg>
