<svg width="27" height="22" viewBox="0 0 27 22" fill="none" xmlns="http://www.w3.org/2000/svg">
<path d="M0.6632 2.57067C0.614421 1.14326 1.93914 -0.0967345 3.35371 0.00595677C9.00944 0.0110913 14.6677 -0.0171488 20.3235 0.0187932C21.8587 0.044466 22.9318 1.59254 22.7521 3.05332C23.4222 3.29721 24.123 3.61299 24.503 4.25224C24.9548 4.88123 24.9138 5.68479 24.9343 6.4216C24.5158 6.4216 24.0974 6.4216 23.6789 6.4216C23.6994 5.35874 23.0319 4.29845 21.8613 4.38317C15.6946 4.3498 9.52289 4.37034 3.35371 4.37547C3.35371 3.94417 3.35371 3.51543 3.35371 3.08413C9.39966 3.07899 15.4456 3.0944 21.4916 3.07643C21.4145 2.15991 20.8266 1.29473 19.828 1.31527C14.7601 1.24595 9.68977 1.3127 4.62195 1.2819C3.89541 1.2819 3.09955 1.25622 2.4757 1.69523C1.98535 2.19328 1.93657 2.94293 1.93914 3.60529C1.94684 8.3907 1.94171 13.1787 1.93914 17.9667C1.93657 18.57 2.02386 19.2118 2.41152 19.6996C3.03794 20.1874 3.8723 20.1643 4.62708 20.1617C10.2777 20.1463 15.9283 20.1617 21.5814 20.154C22.1565 20.1463 22.7855 20.0436 23.2219 19.6354C23.7174 18.9268 23.6275 18.0231 23.6429 17.2042C20.9781 17.1965 18.3133 17.2196 15.6484 17.1965C14.393 17.2222 13.23 16.1747 13.1351 14.9244C13.0657 13.7178 13.1325 12.5061 13.1043 11.2969C13.1197 10.5472 13.0272 9.73339 13.4175 9.05563C13.8488 8.2418 14.7396 7.69753 15.6638 7.71294C19.2606 7.6924 22.8599 7.71037 26.4593 7.70524C26.4593 10.8707 26.4593 14.0387 26.4593 17.2042C25.9458 17.2042 25.4323 17.2042 24.9189 17.2042C24.8958 18.3569 25.1345 19.7201 24.2309 20.6212C23.5813 21.3786 22.5339 21.4967 21.5994 21.4479C15.4379 21.4248 9.27387 21.4633 3.11239 21.4274C1.72349 21.4222 0.560511 20.1103 0.658068 18.7343C0.660635 13.3481 0.647796 7.9594 0.6632 2.57067ZM14.8526 9.45869C14.1825 10.3572 14.4444 11.5408 14.3905 12.5805C14.4238 13.5432 14.2262 14.6369 14.8603 15.4584C15.3763 15.8666 16.0618 15.9282 16.6984 15.9231C19.5225 15.918 22.349 15.9205 25.1756 15.9205C25.1756 13.61 25.1756 11.2994 25.1756 8.98888C22.349 8.98888 19.525 8.99145 16.701 8.98631C16.0592 8.97861 15.3686 9.04279 14.8526 9.45869Z" fill="#878D9D"/>
<path d="M16.5033 11.3379C17.3659 10.8091 18.5879 11.5664 18.4981 12.5728C18.5135 13.5766 17.2581 14.2184 16.4366 13.6639C15.5816 13.1787 15.6125 11.7667 16.5033 11.3379Z" fill="#878D9D"/>
</svg>
