<svg width="26" height="27" viewBox="0 0 26 27" fill="none" xmlns="http://www.w3.org/2000/svg">
<path d="M1.5607 0.846924C8.96218 0.846924 16.3662 0.846924 23.7677 0.846924C23.7677 1.27309 23.7677 1.70183 23.7677 2.13056C16.3662 2.13056 8.96218 2.13056 1.5607 2.13056C1.55814 1.70183 1.55814 1.27309 1.5607 0.846924Z" fill="#878D9D"/>
<path d="M0.277079 3.41418C8.53603 3.41418 16.7924 3.41418 25.0514 3.41418C25.0385 4.8724 25.0745 6.33062 25.0411 7.78884C25.0026 9.9813 23.1413 11.9376 20.9617 12.1173C19.2313 12.3304 17.5164 11.4061 16.5793 9.96589C15.7321 11.2444 14.2944 12.1455 12.7387 12.1404C11.1315 12.1969 9.61172 11.288 8.74911 9.95819C7.7145 11.6218 5.65297 12.469 3.74291 12.0428C3.74548 15.5857 3.74291 19.1285 3.74034 22.6714C3.7275 23.4441 3.90208 24.4916 4.79806 24.6995C6.00212 25.0025 7.26265 24.7868 8.49238 24.8484C8.50265 22.0655 8.46928 19.28 8.50522 16.4945C8.53089 15.216 9.67333 14.0838 10.957 14.0787C12.2329 14.0504 13.5089 14.0607 14.7848 14.0735C16.089 14.035 17.3007 15.1569 17.3341 16.4688C17.3777 18.7486 17.3341 21.0309 17.3495 23.3106C16.9208 23.3106 16.492 23.3106 16.0659 23.3106C16.0556 21.2927 16.0813 19.2723 16.0582 17.2544C16.0813 16.4431 15.6705 15.5292 14.772 15.4316C13.591 15.2879 12.3844 15.3212 11.2009 15.406C10.3408 15.4573 9.79143 16.2326 9.79656 17.0567C9.75035 19.6522 9.78373 22.2529 9.78886 24.851C13.0801 24.8484 16.3714 24.8484 19.6652 24.8536C20.2634 24.8536 20.9001 24.7637 21.3853 24.3812C21.8166 23.8215 21.8525 23.0847 21.8474 22.4095C21.832 19.6754 21.85 16.9412 21.8371 14.2045C22.2659 14.1993 22.6946 14.1942 23.1259 14.1942C23.1156 17.352 23.1464 20.5149 23.1156 23.6726C23.1105 25.0615 21.8037 26.2271 20.4277 26.1346C15.2982 26.1346 10.1688 26.1423 5.03939 26.1295C3.71467 26.1731 2.49521 25.0333 2.47467 23.706C2.4336 19.6368 2.47981 15.5651 2.45157 11.496C1.27832 10.713 0.395172 9.44216 0.30275 8.00705C0.236 6.47695 0.29505 4.94429 0.277079 3.41418ZM1.59409 4.7004C1.57355 6.18429 1.34763 7.79654 2.12809 9.14436C2.47467 9.90941 3.24229 10.3458 4.0022 10.6128C5.06249 11.0647 6.23831 10.4973 7.06497 9.81955C8.34348 8.43835 8.12526 6.43844 8.08162 4.70553C5.9174 4.69012 3.75574 4.7004 1.59409 4.7004ZM9.41917 4.70553C9.40634 6.21509 9.17014 7.86328 9.99938 9.21881C10.3691 9.97872 11.1649 10.3844 11.9274 10.6462C12.9415 11.0364 14.03 10.487 14.8336 9.8786C16.1763 8.51024 15.9632 6.45385 15.9041 4.7004C13.7425 4.7004 11.5808 4.69012 9.41917 4.70553ZM17.2545 4.7004C17.2365 6.18429 17.0055 7.79654 17.7885 9.14436C18.1377 9.90941 18.9078 10.351 19.6703 10.6154C20.7306 11.0647 21.9064 10.4922 22.728 9.81699C24.0013 8.43322 23.7857 6.43588 23.7395 4.70553C21.5778 4.69012 19.4162 4.7004 17.2545 4.7004Z" fill="#878D9D"/>
</svg>
