<svg width="24" height="25" viewBox="0 0 24 25" fill="none" xmlns="http://www.w3.org/2000/svg">
<path d="M0.920876 0.748902C3.81164 -0.177886 6.93088 0.502449 9.66504 1.62178C13.4338 3.22634 16.8098 5.65756 19.7622 8.47643C18.915 9.50848 18.0575 10.5302 17.2103 11.5597C16.4042 10.6663 15.634 9.61116 14.4633 9.18756C13.5801 8.99501 13.3671 10.1657 12.851 10.6483L12.371 10.3711C9.41858 14.9563 6.51242 19.5697 3.5472 24.1445C2.88228 25.1715 1.16733 24.6631 0.936279 23.5361C0.736031 22.8994 1.20328 22.3577 1.50878 21.8545C4.32252 17.4722 7.12343 13.0796 9.9269 8.69207C9.83448 8.59708 9.64964 8.40711 9.55721 8.31212C10.0219 7.61639 10.7818 6.82823 10.5199 5.93225C7.93212 3.28795 4.41751 1.78352 0.920876 0.748902Z" fill="#878D9D"/>
<path d="M15.5929 15.3901C16.1603 15.041 16.7276 14.6944 17.295 14.3504C18.2141 14.9871 19.1409 15.6135 20.0523 16.263C19.2949 17.3875 18.2783 18.2963 17.3874 19.3078C16.8971 18.707 16.3374 18.1602 15.8933 17.5261C15.7059 16.8278 15.6879 16.1013 15.5929 15.3901Z" fill="#878D9D"/>
<path d="M18.5144 19.7263C20.2858 19.3489 22.0624 19.0049 23.8338 18.6403C23.7003 20.1036 23.7209 21.585 23.5309 23.0406C23.0585 23.685 22.4706 24.237 21.9597 24.8506C20.8404 24.6862 19.7236 24.5117 18.6094 24.3371C18.5657 22.7993 18.5272 21.2641 18.5144 19.7263Z" fill="#878D9D"/>
<path d="M11.2671 20.1344C12.5379 19.8829 13.8061 19.6261 15.0769 19.3745C15.5288 20.8713 15.9755 22.368 16.4247 23.8673C15.6982 24.124 14.9691 24.3807 14.2425 24.6375C12.9153 24.1394 11.5777 23.6619 10.2556 23.1459C10.6098 22.1472 10.9384 21.1408 11.2671 20.1344Z" fill="#878D9D"/>
</svg>
