<svg width="25" height="33" viewBox="0 0 25 33" fill="none" xmlns="http://www.w3.org/2000/svg">
<path d="M6.11665 0.965332C10.1807 3.54545 14.3859 6.11273 19.102 7.29112C19.1482 7.87646 18.9916 8.67232 19.6257 9.00093C20.9632 9.70693 22.5062 8.82379 23.8822 9.28333C24.7372 9.5837 24.7936 10.644 24.5472 11.3834C24.0286 13.5014 21.7514 14.613 19.7284 14.7568C19.9877 14.269 20.5936 13.8634 20.4986 13.26C18.2291 13.0418 16.1342 14.3178 13.8878 14.4615C14.5348 13.5502 15.4436 12.8801 16.1881 12.0586C15.3537 11.1651 13.9725 11.3885 12.866 11.2832C10.8815 11.1472 9.17428 12.6362 8.42977 14.3743C7.33868 16.7567 7.79565 19.5781 9.13577 21.7629C6.77131 20.8079 4.29388 19.1699 3.67516 16.5282C3.10523 14.5514 3.60585 12.0483 5.57238 11.0419C4.3863 11.2396 3.18995 11.3654 1.99359 11.4475C3.32601 9.64532 4.97678 7.45542 7.47988 7.56838C6.41702 7.24491 5.3362 6.99331 4.23483 6.85725C6.31433 5.88168 8.89958 5.21419 11.0202 6.44392C9.57478 5.18338 8.10886 3.91771 6.89967 2.42098C6.53511 1.99738 6.28609 1.49419 6.11665 0.965332ZM15.8518 9.07281C15.8133 9.66585 16.3062 10.4027 16.9737 10.1613C17.7618 9.80962 18.0006 8.8777 17.9544 8.08698C17.423 7.93294 16.8941 7.7712 16.3729 7.59406C16.1137 8.04847 15.821 8.52598 15.8518 9.07281Z" fill="#878D9D"/>
<path d="M9.40025 16.9081C9.11528 14.6207 11.3745 12.382 13.6979 12.9032C13.0535 13.6682 12.1575 14.405 12.1216 15.4859C12.1421 16.4178 12.9713 17.0416 13.7236 17.437C16.6759 18.9363 20.3677 18.5897 23.0068 20.777C23.9875 21.5267 24.2468 22.836 23.985 23.9913C23.451 22.6691 22.1186 21.311 20.5756 21.9914C21.3638 23.1928 21.9979 24.6793 21.4999 26.1247C20.7271 28.4404 18.6219 29.9422 16.6426 31.1899C17.7568 29.5931 19.007 27.796 18.7939 25.7499C18.5141 23.8398 16.5065 23.0824 15.02 22.2738C12.6787 21.1339 10.1063 19.6089 9.40025 16.9081Z" fill="#878D9D"/>
<path d="M2.45831 29.2722C-0.0987047 26.2351 -0.378541 21.7013 1.42883 18.2252C1.5803 19.7681 2.2786 21.2623 3.49292 22.2532C4.57118 23.2108 5.92927 23.7422 7.25399 24.2608C6.01913 24.3943 4.75089 24.5432 3.53657 24.2018C5.39271 26.4148 8.19875 27.7344 11.0638 27.9141C12.3963 28.0065 13.8262 26.8949 13.6568 25.4752C13.6003 24.5304 12.8276 23.9168 12.2884 23.2262C13.7621 24.1017 15.0662 25.3186 15.9391 26.8024C16.5347 27.7909 16.7273 29.1566 15.9648 30.1142C14.4629 31.9653 11.7108 32.4736 9.55428 31.5596C6.59934 30.371 4.33242 27.9449 2.59694 25.3417C2.3017 26.633 2.36589 27.9629 2.45831 29.2722Z" fill="#878D9D"/>
</svg>
