<svg width="23" height="23" viewBox="0 0 23 23" fill="none" xmlns="http://www.w3.org/2000/svg">
<path d="M11.6991 22.6596C5.61129 22.6596 0.658203 17.7065 0.658203 11.6187C0.658203 7.03772 3.53981 2.88155 7.82792 1.27582C8.37283 1.07131 8.98241 1.34839 9.18692 1.89463C9.23553 2.02449 9.25809 2.16266 9.2533 2.30124C9.24851 2.43982 9.21647 2.57611 9.159 2.7023C9.10154 2.8285 9.01978 2.94214 8.9184 3.03674C8.81701 3.13134 8.69798 3.20504 8.56811 3.25363C5.09936 4.55193 2.76927 7.91381 2.76927 11.6201C2.76927 16.5441 6.77502 20.5499 11.6991 20.5499C15.3987 20.5499 18.7593 18.2237 20.0602 14.7629C20.2661 14.2167 20.8743 13.9409 21.4192 14.1467C21.9641 14.3526 22.2412 14.9608 22.0354 15.5057C20.4257 19.7846 16.2722 22.6596 11.6991 22.6596Z" fill="#878D9D"/>
<path d="M20.7451 12.5923H12.6373C11.5831 12.5923 10.7241 11.7347 10.7241 10.6792V2.57136C10.7241 1.51714 11.5817 0.658203 12.6373 0.658203C18.163 0.658203 22.6582 5.15346 22.6582 10.6792C22.6582 11.7347 21.8006 12.5923 20.7451 12.5923ZM12.8352 10.4813H20.5445C20.4403 6.27628 17.0402 2.87614 12.8352 2.77191V10.4813Z" fill="#878D9D"/>
</svg>
