<svg width="26" height="26" viewBox="0 0 26 26" fill="none" xmlns="http://www.w3.org/2000/svg">
<path d="M9.47002 2.57995C9.6754 1.57615 10.6099 0.759738 11.6522 0.78541C12.5764 0.749468 13.4082 1.32455 13.8986 2.07676C16.6096 6.04321 19.3027 10.0225 22.0138 13.9889C22.5169 14.6898 22.9046 15.5653 22.6658 16.4407C22.4476 17.4805 21.4207 18.2866 20.3502 18.189C19.6596 18.225 19.1204 17.7654 18.5762 17.424C16.2297 16.5229 13.4801 17.0902 11.5598 18.6845C12.3967 19.9425 13.2978 21.1619 14.0937 22.4481C14.7561 23.6137 14.2375 25.3184 12.941 25.7805C11.9269 26.2118 10.7151 25.7651 10.0887 24.8973C9.19788 23.7164 8.43027 22.4507 7.56766 21.2518C6.83855 21.3134 6.11715 21.1876 5.48816 20.8051C3.86821 21.9347 1.44726 21.2338 0.636 19.4496C-0.149588 17.9939 0.389539 16.1557 1.68088 15.193C1.56022 14.2816 1.72453 13.247 2.52038 12.6822C3.95549 11.6271 5.47789 10.6951 6.913 9.63741C8.40203 8.48984 9.34935 6.72354 9.59068 4.8674C9.77552 4.09721 9.2364 3.35014 9.47002 2.57995ZM11.2235 2.63386C10.7922 2.98301 11.0386 3.57863 11.321 3.94318C14.0526 7.95584 16.7868 11.9659 19.5107 15.9837C19.7314 16.3508 20.1602 16.759 20.6197 16.5485C21.1589 16.4073 21.2821 15.6962 20.9663 15.2957C18.1731 11.1701 15.3619 7.05216 12.561 2.93167C12.3274 2.43105 11.6291 2.15891 11.2235 2.63386ZM10.9821 6.21522C10.5149 7.98408 9.53163 9.60147 8.1376 10.7901C9.40584 12.6694 10.6895 14.5409 11.9628 16.4176C13.5725 15.5499 15.4364 15.2238 17.2514 15.4343C15.1591 12.3613 13.0668 9.29082 10.9821 6.21522ZM3.52676 13.9787C3.14937 14.2431 3.1391 14.7976 3.4061 15.1494C4.28154 16.4818 5.19036 17.7937 6.09147 19.1107C6.32253 19.5112 6.87706 19.868 7.30836 19.5266C8.4354 18.7872 9.55217 18.0273 10.6433 17.234C9.35449 15.401 8.12219 13.532 6.84882 11.6887C5.75259 12.4691 4.60502 13.1751 3.52676 13.9787ZM2.47931 16.641C1.8837 17.2468 1.60386 18.225 2.1584 18.9592C2.62564 19.7653 3.67309 19.8911 4.46638 19.524C3.81686 18.5536 3.18017 17.5729 2.47931 16.641Z" fill="#878D9D"/>
<path d="M18.4043 1.84828C18.8612 1.28605 19.8676 1.83801 19.7341 2.51834C19.5904 3.43229 19.5441 4.3899 19.2053 5.25764C18.7483 5.84811 17.706 5.33208 17.8395 4.61837C17.9909 3.69929 17.9576 2.66981 18.4043 1.84828Z" fill="#878D9D"/>
<path d="M22.7995 4.96755C23.5029 4.61583 24.232 5.58113 23.7673 6.18958C23.0279 6.79546 22.2193 7.32431 21.4003 7.81723C20.6763 8.05598 20.0781 7.13176 20.512 6.54642C21.2334 5.96621 22.0113 5.4502 22.7995 4.96755Z" fill="#878D9D"/>
<path d="M21.9649 9.56039C22.8892 9.41919 23.8185 9.82226 24.7248 9.99427C25.3948 10.0507 25.6901 10.9801 25.1612 11.4088C24.7992 11.7118 24.3397 11.4884 23.9366 11.432C23.2922 11.2676 22.6119 11.2086 22.0009 10.9442C21.4849 10.6669 21.4643 9.86333 21.9649 9.56039Z" fill="#878D9D"/>
</svg>
