<svg width="31" height="24" viewBox="0 0 31 24" fill="none" xmlns="http://www.w3.org/2000/svg">
<path d="M31 7.087V2.15247C31 0.963229 30.0285 0 28.8291 0H2.17087C0.971463 0 0 0.963229 0 2.15247V7.087C2.70273 7.13543 4.86817 9.3148 4.86817 12C4.86817 14.6852 2.70273 16.8646 0 16.913V21.8475C0 23.0368 0.971463 24 2.17087 24H28.8291C30.0285 24 31 23.0368 31 21.8475V16.913C28.3027 16.87 26.1264 14.6852 26.1264 12C26.1264 9.3148 28.3027 7.13004 31 7.087ZM17.3344 3.66996C17.3344 3.07803 17.8228 2.59372 18.4198 2.59372C19.0168 2.59372 19.5053 3.07803 19.5053 3.66996V6.33901C19.5053 6.93094 19.0168 7.41525 18.4198 7.41525C17.8228 7.41525 17.3344 6.93094 17.3344 6.33901V3.66996ZM19.5053 20.33C19.5053 20.922 19.0168 21.4063 18.4198 21.4063C17.8228 21.4063 17.3344 20.922 17.3344 20.33V17.661C17.3344 17.0691 17.8228 16.5848 18.4198 16.5848C19.0168 16.5848 19.5053 17.0691 19.5053 17.661V20.33ZM19.6192 13.3345C19.6192 13.9265 19.1308 14.4108 18.5338 14.4108C17.9368 14.4108 17.4484 13.9265 17.4484 13.3345V10.6655C17.4484 10.0735 17.9368 9.58924 18.5338 9.58924C19.1308 9.58924 19.6192 10.0735 19.6192 10.6655V13.3345Z" fill="#6A6B6F"/>
</svg>
