<svg width="24" height="20" viewBox="0 0 24 20" fill="none" xmlns="http://www.w3.org/2000/svg">
<path d="M17.4192 0C21.5568 0 24 2.20556 24 5.98H18.9228V6.01778C16.566 6.01778 14.6556 7.74222 14.6556 9.87C14.6556 11.9978 16.566 13.7222 18.9228 13.7222H24V14.0689C24 17.7944 21.5568 20 17.4192 20H6.5808C2.4432 20 0 17.7944 0 14.0689V5.93111C0 2.20556 2.4432 0 6.5808 0H17.4192ZM23.1036 7.63556C23.5992 7.63556 24 7.99778 24 8.44444V11.2567C23.9944 11.4732 23.8974 11.6791 23.7299 11.8303C23.5623 11.9815 23.3375 12.0659 23.1036 12.0656H19.02C17.8272 12.08 16.7832 11.3433 16.5132 10.2933C16.4466 9.97086 16.4586 9.63867 16.5485 9.32108C16.6384 9.00348 16.8039 8.70852 17.0328 8.45778C17.2658 8.20302 17.5553 7.99772 17.8816 7.85584C18.208 7.71396 18.5635 7.63883 18.924 7.63556H23.1036ZM19.4988 8.93556H19.104C18.8628 8.93267 18.6301 9.01767 18.456 9.17222C18.3712 9.24754 18.3037 9.33793 18.2575 9.43797C18.2113 9.53801 18.1874 9.64565 18.1872 9.75444C18.1872 10.2133 18.5952 10.5878 19.104 10.5922H19.4988C19.7389 10.5949 19.9703 10.5092 20.1422 10.354C20.3141 10.1988 20.4124 9.98674 20.4156 9.76444C20.4142 9.65428 20.3894 9.54545 20.3425 9.44417C20.2957 9.34289 20.2278 9.25114 20.1426 9.17417C20.0575 9.0972 19.9568 9.03651 19.8463 8.99557C19.7359 8.95463 19.6178 8.93423 19.4988 8.93556ZM12.4584 4.32444H5.6856C5.44714 4.32145 5.21703 4.40563 5.04517 4.55872C4.87331 4.71182 4.77358 4.92148 4.7676 5.14222C4.7676 5.60111 5.1768 5.97555 5.6856 5.98H12.4584C12.5775 5.98147 12.6957 5.96118 12.8063 5.92031C12.9169 5.87943 13.0177 5.81877 13.103 5.74178C13.1883 5.66479 13.2563 5.573 13.3032 5.47165C13.3501 5.37029 13.375 5.26137 13.3764 5.15111C13.3748 5.04094 13.3498 4.93214 13.3029 4.83092C13.2559 4.72969 13.1878 4.63803 13.1026 4.56116C13.0173 4.48429 12.9166 4.42372 12.806 4.38292C12.6955 4.34211 12.5774 4.32186 12.4584 4.32333V4.32444Z" fill="white"/>
</svg>
